<svg width="640" height="840" viewBox="0 0 640 840" fill="none" xmlns="http://www.w3.org/2000/svg">
  <defs>
    <linearGradient id="bg" x1="120" y1="40" x2="520" y2="760" gradientUnits="userSpaceOnUse">
      <stop stop-color="#0E3C4A"/>
      <stop offset="1" stop-color="#071B27"/>
    </linearGradient>
    <linearGradient id="cloak" x1="180" y1="250" x2="470" y2="760" gradientUnits="userSpaceOnUse">
      <stop stop-color="#7FD9E8"/>
      <stop offset="1" stop-color="#1E5B73"/>
    </linearGradient>
  </defs>
  <rect width="640" height="840" rx="40" fill="url(#bg)"/>
  <circle cx="324" cy="266" r="162" fill="#A9EEF7" fill-opacity=".08"/>
  <path d="M135 700C188 563 251 493 319 493C387 493 448 563 505 700C414 758 228 758 135 700Z" fill="url(#cloak)"/>
  <path d="M245 222C245 168 279 129 321 129C363 129 395 168 395 222V319H245V222Z" fill="#D6F8FC"/>
  <path d="M228 345C246 309 280 286 320 286C360 286 394 309 412 345L448 418H192L228 345Z" fill="#E9FCFF"/>
  <path d="M249 176C271 141 300 121 319 121C337 121 368 141 393 176C372 160 353 152 319 152C285 152 268 160 249 176Z" fill="#103342"/>
  <path d="M267 220C282 211 298 206 319 206C340 206 356 211 372 220" stroke="#103342" stroke-width="8" stroke-linecap="round"/>
  <path d="M291 244C300 252 311 256 319 256C327 256 339 252 347 244" stroke="#103342" stroke-width="8" stroke-linecap="round"/>
  <path d="M217 458C253 436 286 426 320 426C354 426 387 436 423 458" stroke="#DDFBFF" stroke-opacity=".8" stroke-width="10" stroke-linecap="round"/>
  <path d="M114 676C184 639 252 622 320 622C388 622 457 639 526 676" stroke="#8BDCEA" stroke-opacity=".45" stroke-width="14" stroke-linecap="round"/>
  <text x="52" y="784" fill="#DFFBFF" fill-opacity=".86" font-family="serif" font-size="42" letter-spacing="10">河伯</text>
</svg>
