<svg width="640" height="840" viewBox="0 0 640 840" fill="none" xmlns="http://www.w3.org/2000/svg">
  <defs>
    <linearGradient id="bg" x1="96" y1="40" x2="536" y2="780" gradientUnits="userSpaceOnUse">
      <stop stop-color="#302C27"/>
      <stop offset="1" stop-color="#13110F"/>
    </linearGradient>
    <linearGradient id="cloak" x1="200" y1="240" x2="456" y2="738" gradientUnits="userSpaceOnUse">
      <stop stop-color="#B79B6C"/>
      <stop offset="1" stop-color="#55432A"/>
    </linearGradient>
  </defs>
  <rect width="640" height="840" rx="40" fill="url(#bg)"/>
  <path d="M138 706C203 553 262 485 321 485C379 485 440 553 503 706C412 762 229 762 138 706Z" fill="url(#cloak)"/>
  <path d="M243 214C243 163 278 123 320 123C362 123 397 163 397 214V316H243V214Z" fill="#F0E7D8"/>
  <path d="M224 346C244 308 278 286 320 286C362 286 396 308 416 346L448 412H192L224 346Z" fill="#F7F0E2"/>
  <path d="M247 171C268 143 295 122 320 122C345 122 372 143 393 171C370 152 351 146 320 146C289 146 270 152 247 171Z" fill="#28211B"/>
  <path d="M272 221C286 212 302 208 320 208C338 208 354 212 368 221" stroke="#28211B" stroke-width="8" stroke-linecap="round"/>
  <path d="M293 245C302 251 311 255 320 255C329 255 338 251 347 245" stroke="#28211B" stroke-width="8" stroke-linecap="round"/>
  <rect x="164" y="100" width="312" height="548" rx="26" stroke="#A98B58" stroke-opacity=".35" stroke-width="8"/>
  <path d="M182 590H458" stroke="#A98B58" stroke-opacity=".35" stroke-width="8" stroke-linecap="round"/>
  <path d="M194 684C240 662 281 651 320 651C359 651 401 662 446 684" stroke="#C6AD79" stroke-opacity=".45" stroke-width="12" stroke-linecap="round"/>
  <text x="52" y="784" fill="#F5EBD8" fill-opacity=".85" font-family="serif" font-size="42" letter-spacing="10">四岳</text>
</svg>
