<svg width="640" height="840" viewBox="0 0 640 840" fill="none" xmlns="http://www.w3.org/2000/svg">
  <defs>
    <linearGradient id="bg" x1="86" y1="22" x2="544" y2="790" gradientUnits="userSpaceOnUse">
      <stop stop-color="#1D2438"/>
      <stop offset="1" stop-color="#0A0E19"/>
    </linearGradient>
    <linearGradient id="cloak" x1="156" y1="254" x2="496" y2="746" gradientUnits="userSpaceOnUse">
      <stop stop-color="#B6B0FF"/>
      <stop offset="1" stop-color="#4450A8"/>
    </linearGradient>
  </defs>
  <rect width="640" height="840" rx="40" fill="url(#bg)"/>
  <circle cx="321" cy="223" r="122" fill="#D9D6FF" fill-opacity=".08"/>
  <path d="M138 708C188 564 250 489 319 489C389 489 453 564 502 708C413 761 228 761 138 708Z" fill="url(#cloak)"/>
  <path d="M246 212C246 162 281 124 320 124C359 124 394 162 394 212V316H246V212Z" fill="#F1EDFF"/>
  <path d="M222 347C245 307 279 286 320 286C361 286 395 307 418 347L448 414H192L222 347Z" fill="#FCFBFF"/>
  <path d="M244 174C266 138 292 117 320 117C348 117 374 138 396 174C374 154 353 147 320 147C287 147 266 154 244 174Z" fill="#1B2031"/>
  <path d="M273 220C286 212 303 208 320 208C337 208 354 212 367 220" stroke="#1B2031" stroke-width="8" stroke-linecap="round"/>
  <path d="M294 245C302 252 311 255 320 255C329 255 338 252 346 245" stroke="#1B2031" stroke-width="8" stroke-linecap="round"/>
  <path d="M195 167C232 152 273 145 320 145C367 145 409 152 445 167" stroke="#A9A1FF" stroke-opacity=".55" stroke-width="10" stroke-linecap="round"/>
  <path d="M177 618C219 573 266 549 320 549C374 549 421 573 463 618" stroke="#DDD9FF" stroke-opacity=".55" stroke-width="12" stroke-linecap="round"/>
  <path d="M158 680C208 651 262 637 320 637C378 637 432 651 482 680" stroke="#9A97FF" stroke-opacity=".4" stroke-width="14" stroke-linecap="round"/>
  <text x="52" y="784" fill="#ECEAFF" fill-opacity=".87" font-family="serif" font-size="42" letter-spacing="10">玄女</text>
</svg>
